<svg xmlns="http://www.w3.org/2000/svg" viewBox="0 0 640 320" role="img" aria-label="Reference illustration of a bus">
  <ellipse cx="320" cy="300" rx="280" ry="10" fill="#e8e8e8" />
  <path d="M40 130 C40 116 50 106 64 106 L554 106 C572 106 586 120 586 138 L586 224 C586 236 576 246 564 246 L536 246 C536 224 518 206 496 206 C474 206 456 224 456 246 L184 246 C184 224 166 206 144 206 C122 206 104 224 104 246 L62 246 C50 246 40 236 40 224 Z" fill="#ffffff" stroke="#181925" stroke-width="1.5" stroke-linejoin="round" />
  <line x1="40" y1="188" x2="586" y2="188" stroke="#181925" stroke-width="1.5" opacity="0.5" />
  <rect x="60" y="128" width="58" height="46" rx="6" fill="#f5f5f5" stroke="#181925" stroke-width="1.5" />
  <rect x="132" y="128" width="58" height="46" rx="6" fill="#f5f5f5" stroke="#181925" stroke-width="1.5" />
  <rect x="204" y="128" width="58" height="46" rx="6" fill="#f5f5f5" stroke="#181925" stroke-width="1.5" />
  <rect x="276" y="128" width="58" height="46" rx="6" fill="#f5f5f5" stroke="#181925" stroke-width="1.5" />
  <rect x="348" y="128" width="58" height="46" rx="6" fill="#f5f5f5" stroke="#181925" stroke-width="1.5" />
  <rect x="420" y="128" width="58" height="46" rx="6" fill="#f5f5f5" stroke="#181925" stroke-width="1.5" />
  <rect x="492" y="128" width="58" height="46" rx="6" fill="#f5f5f5" stroke="#181925" stroke-width="1.5" />
  <rect x="562" y="132" width="16" height="14" rx="4" fill="#918df6" />
  <rect x="40" y="196" width="12" height="10" rx="4" fill="#181925" opacity="0.5" />
  <circle cx="144" cy="246" r="34" fill="#181925" />
  <circle cx="144" cy="246" r="12" fill="#fafafa" />
  <circle cx="308" cy="246" r="34" fill="#181925" />
  <circle cx="308" cy="246" r="12" fill="#fafafa" />
  <circle cx="496" cy="246" r="34" fill="#181925" />
  <circle cx="496" cy="246" r="12" fill="#fafafa" />
</svg>
