<svg xmlns="http://www.w3.org/2000/svg" viewBox="0 0 640 320" role="img" aria-label="Reference illustration of a commercial van">
  <ellipse cx="320" cy="300" rx="250" ry="10" fill="#e8e8e8" />
  <path d="M56 156 C56 132 76 114 100 114 L166 114 C182 114 196 124 202 140 L212 168 L520 168 C548 168 570 190 570 218 L570 226 C570 236 562 246 552 246 L522 246 C522 224 504 206 482 206 C460 206 442 224 442 246 L192 246 C192 224 174 206 152 206 C130 206 112 224 112 246 L78 246 C66 246 56 236 56 224 Z" fill="#ffffff" stroke="#181925" stroke-width="1.5" stroke-linejoin="round" />
  <path d="M112 132 L164 132 C174 132 182 138 186 148 L192 164 L112 164 Z" fill="#f5f5f5" stroke="#181925" stroke-width="1.5" stroke-linejoin="round" />
  <line x1="212" y1="168" x2="212" y2="246" stroke="#181925" stroke-width="1.5" opacity="0.35" />
  <line x1="300" y1="168" x2="300" y2="246" stroke="#181925" stroke-width="1.2" opacity="0.25" />
  <line x1="390" y1="168" x2="390" y2="246" stroke="#181925" stroke-width="1.2" opacity="0.25" />
  <rect x="546" y="192" width="18" height="12" rx="4" fill="#918df6" />
  <rect x="56" y="192" width="14" height="10" rx="4" fill="#181925" opacity="0.5" />
  <circle cx="152" cy="246" r="36" fill="#181925" />
  <circle cx="152" cy="246" r="13" fill="#fafafa" />
  <circle cx="482" cy="246" r="36" fill="#181925" />
  <circle cx="482" cy="246" r="13" fill="#fafafa" />
</svg>
