<svg xmlns="http://www.w3.org/2000/svg" viewBox="0 0 640 320" role="img" aria-label="Reference illustration of a luxury car">
  <ellipse cx="320" cy="298" rx="258" ry="10" fill="#e8e8e8" />
  <path d="M50 212 C50 188 70 178 100 176 L160 174 C180 128 222 94 268 90 L400 90 C440 94 472 122 490 172 L546 176 C568 178 584 190 584 212 L584 226 C584 236 576 244 566 244 L528 244 C528 222 510 204 488 204 C466 204 448 222 448 244 L206 244 C206 222 188 204 166 204 C144 204 126 222 126 244 L82 244 C70 244 58 236 58 224 Z" fill="#ffffff" stroke="#181925" stroke-width="1.5" stroke-linejoin="round" />
  <path d="M176 172 C196 130 230 98 270 94 L398 94 C432 98 462 128 478 172 Z" fill="none" stroke="#181925" stroke-width="1.5" />
  <path d="M192 168 C208 136 234 108 268 104 L326 104 L326 168 Z" fill="#f5f5f5" stroke="#181925" stroke-width="1.5" stroke-linejoin="round" />
  <path d="M334 104 L396 104 C420 110 444 136 462 168 L334 168 Z" fill="#f5f5f5" stroke="#181925" stroke-width="1.5" stroke-linejoin="round" />
  <line x1="330" y1="102" x2="330" y2="170" stroke="#181925" stroke-width="1.5" />
  <line x1="330" y1="176" x2="330" y2="244" stroke="#181925" stroke-width="1.5" opacity="0.4" />
  <rect x="292" y="192" width="20" height="4" rx="2" fill="#181925" />
  <rect x="386" y="192" width="20" height="4" rx="2" fill="#181925" />
  <rect x="566" y="190" width="18" height="10" rx="4" fill="#918df6" />
  <rect x="50" y="190" width="14" height="10" rx="4" fill="#181925" opacity="0.5" />
  <rect x="540" y="216" width="40" height="14" rx="3" fill="#ffffff" stroke="#181925" stroke-width="1.2" />
  <line x1="546" y1="223" x2="574" y2="223" stroke="#999999" stroke-width="2" stroke-linecap="round" />
  <circle cx="166" cy="244" r="38" fill="#181925" />
  <circle cx="166" cy="244" r="14" fill="#fafafa" />
  <circle cx="488" cy="244" r="38" fill="#181925" />
  <circle cx="488" cy="244" r="14" fill="#fafafa" />
</svg>
