<svg xmlns="http://www.w3.org/2000/svg" viewBox="0 0 640 320" role="img" aria-label="Reference illustration of an SUV">
  <ellipse cx="320" cy="300" rx="240" ry="10" fill="#e8e8e8" />
  <path d="M64 214 C64 188 82 178 110 176 L150 174 C162 122 200 78 250 74 L410 74 C456 78 490 116 504 174 L530 176 C554 178 570 190 570 214 L570 228 C570 238 562 246 552 246 L516 246 C516 224 498 206 476 206 C454 206 436 224 436 246 L204 246 C204 224 186 206 164 206 C142 206 124 224 124 246 L88 246 C76 246 64 238 64 226 Z" fill="#ffffff" stroke="#181925" stroke-width="1.5" stroke-linejoin="round" />
  <path d="M162 172 C176 122 210 84 252 80 L408 80 C448 84 480 118 494 172 Z" fill="none" stroke="#181925" stroke-width="1.5" />
  <path d="M176 168 C190 132 216 96 252 92 L318 92 L318 168 Z" fill="#f5f5f5" stroke="#181925" stroke-width="1.5" stroke-linejoin="round" />
  <path d="M326 92 L406 92 C432 98 456 128 476 168 L326 168 Z" fill="#f5f5f5" stroke="#181925" stroke-width="1.5" stroke-linejoin="round" />
  <line x1="322" y1="90" x2="322" y2="170" stroke="#181925" stroke-width="1.5" />
  <line x1="322" y1="178" x2="322" y2="246" stroke="#181925" stroke-width="1.5" opacity="0.4" />
  <rect x="270" y="196" width="22" height="4" rx="2" fill="#181925" />
  <rect x="372" y="196" width="22" height="4" rx="2" fill="#181925" />
  <rect x="550" y="192" width="18" height="12" rx="4" fill="#918df6" />
  <rect x="64" y="192" width="16" height="12" rx="4" fill="#181925" opacity="0.5" />
  <rect x="524" y="220" width="40" height="15" rx="3" fill="#ffffff" stroke="#181925" stroke-width="1.2" />
  <line x1="530" y1="227.5" x2="558" y2="227.5" stroke="#999999" stroke-width="2" stroke-linecap="round" />
  <circle cx="164" cy="246" r="42" fill="#181925" />
  <circle cx="164" cy="246" r="16" fill="#fafafa" />
  <circle cx="476" cy="246" r="42" fill="#181925" />
  <circle cx="476" cy="246" r="16" fill="#fafafa" />
</svg>
